inDegrees=no
num_controls=7
num_derivatives=13
num_iterations=80
num_multipliers=7
num_parameters=0
num_slacks=7
num_states=26
objective=0.516604
objective_accelerations=0.041606
objective_balance=0.002312
objective_effort=0.046106
objective_height=0.414989
objective_ligament=0.011591
solver_duration=1071.822528
status=Solve_Succeeded
success=true
DataType=double
version=3
OpenSimVersion=4.5
endheader
time	/jointset/ground_pelvis/pelvis_tilt/value	/jointset/ground_pelvis/pelvis_tx/value	/jointset/ground_pelvis/pelvis_ty/value	/jointset/hip_l/hip_flexion_l/value	/jointset/hip_l/hip_adduction_l/value	/jointset/hip_l/hip_rotation_l/value	/jointset/back/lumbar_extension/value	/jointset/patellofemoral_l/patellar_flexion_l/value	/jointset/knee_l/knee_flexion_l/value	/jointset/knee_l/knee_adduction_l/value	/jointset/knee_l/knee_rotation_l/value	/jointset/ankle_l/ankle_angle_l/value	/jointset/subtalar_l/subtalar_angle_l/value	/jointset/ground_pelvis/pelvis_tilt/speed	/jointset/ground_pelvis/pelvis_tx/speed	/jointset/ground_pelvis/pelvis_ty/speed	/jointset/hip_l/hip_flexion_l/speed	/jointset/hip_l/hip_adduction_l/speed	/jointset/hip_l/hip_rotation_l/speed	/jointset/back/lumbar_extension/speed	/jointset/patellofemoral_l/patellar_flexion_l/speed	/jointset/knee_l/knee_flexion_l/speed	/jointset/knee_l/knee_adduction_l/speed	/jointset/knee_l/knee_rotation_l/speed	/jointset/ankle_l/ankle_angle_l/speed	/jointset/subtalar_l/subtalar_angle_l/speed	/forceset/tau_hip_flexion_l	/forceset/tau_hip_adduction_l	/forceset/tau_hip_rotation_l	/forceset/tau_knee_flexion_l	/forceset/tau_ankle_angle_l	/forceset/tau_subtalar_angle_l	/forceset/tau_lumbar_extension	lambda_cid13_p0	lambda_cid13_p1	lambda_cid13_p2	lambda_cid13_p3	lambda_cid13_p4	lambda_cid13_p5	lambda_cid14_p0	/jointset/ground_pelvis/pelvis_tilt/accel	/jointset/ground_pelvis/pelvis_tx/accel	/jointset/ground_pelvis/pelvis_ty/accel	/jointset/hip_l/hip_flexion_l/accel	/jointset/hip_l/hip_adduction_l/accel	/jointset/hip_l/hip_rotation_l/accel	/jointset/back/lumbar_extension/accel	/jointset/patellofemoral_l/patellar_flexion_l/accel	/jointset/knee_l/knee_flexion_l/accel	/jointset/knee_l/knee_adduction_l/accel	/jointset/knee_l/knee_rotation_l/accel	/jointset/ankle_l/ankle_angle_l/accel	/jointset/subtalar_l/subtalar_angle_l/accel	gamma_cid13_p0	gamma_cid13_p1	gamma_cid13_p2	gamma_cid13_p3	gamma_cid13_p4	gamma_cid13_p5	gamma_cid14_p0
0.5	-0.1363909028317305	-0.06394085068365322	0.8189789687946371	0.9248630019969025	-0.3245696799808976	-0.119851194886215	-0.780616466649254	0.7932293261671072	0.7932293261672422	-0.1106844906475576	-0.1743808171469984	0.05834475683451462	-0.0122107684827967	-0.2500584428906796	-0.2189260232451488	-0.3593994127420844	1.58473719568692	-0.04095212326838357	0.4702826564786151	-0.8407949020599564	1.457371251740044	1.457371251740026	0.1271974775196878	0.001554741672686145	0.2140401150462482	0.02187659461127116	-0.2906944551771982	0.03763608604847398	-0.003229528231912105	-0.211030423032735	0.1351679031044722	0.03130308505578672	0.334415511136994	-1.755693756210155	-14.36350210074343	3.064657397306553	-11.7017864620225	-702.4747784706358	-59.76517971060348	-14.71904016928182	0.3097471671474885	0.7024300925460926	-0.1269107214214961	-1.463752692660864	0.2457142114439528	-0.3104287630550681	1.715168333166562	-1.060568524415143	-1.060568524415133	-0.2747669572241881	0.04159122971184352	0.05838231940581885	0.283859394710537	-4.42929713040117e-08	-5.643002868616313e-07	-4.033028221277676e-08	-7.692526945494235e-08	-7.736651820190827e-08	-2.799974910581403e-08	-7.980425435288872e-08
0.51	-0.1388756384540198	-0.06609487116002839	0.8153794053604284	0.9406348744235937	-0.3249672758147622	-0.1151658262561376	-0.7889377083564961	0.8077478133338037	0.8077478133338112	-0.1094261832878731	-0.174364626595406	0.06048745587764445	-0.0119783573465872	-0.246850834609292	-0.2118672117575981	-0.3604335005549601	1.569417147610145	-0.03856372435893549	0.4666852818009027	-0.8233597039322484	1.446115457841549	1.446115457841543	0.1244977530845893	0.001652018593833408	0.2144576956894986	0.02459859929605361	-0.2976642531904777	0.03811410500400525	-0.003426654192786999	-0.2132919008563183	0.135445240617714	0.03167724517500657	0.3409570697243527	-1.902590104106696	-14.43802101081077	3.005423792242737	-11.72569771444724	-706.6046904434756	-59.5508627262631	-14.18284293892483	0.3319417164380256	0.7092203635037768	-0.07970651386736516	-1.599155130373724	0.2359793259349612	-0.4003299718744059	1.771755871009825	-1.189677451825858	-1.189677451824243	-0.2626149685081325	-0.01089890583341312	0.02712563163849891	0.2654085666628417	-6.569830365811788e-08	-4.591228395920464e-07	1.329934844712857e-07	-4.56774176494031e-08	-8.951365918983247e-08	-1.548105247739588e-08	-8.824104146269283e-08
0.52	-0.1413271631819097	-0.06817798078420029	0.8117718913075621	0.9562469415164991	-0.3253408723404381	-0.1105196190032554	-0.7970817860187743	0.8221474240355978	0.8221474240356001	-0.1081938811287616	-0.1743484022405506	0.06263306666617607	-0.01171891865126968	-0.2434162640157237	-0.204743852804495	-0.360989536473667	1.552776128925849	-0.03615226163992016	0.4624503810533808	-0.8053620930670288	1.433595958772688	1.433595958772693	0.1219964373752782	0.001561502349007662	0.2146224641269032	0.02728210643286193	-0.3046340512038076	0.03859212395949492	-0.003623780152385617	-0.2155533786799856	0.1357225781309145	0.03205140529410114	0.3474986283116899	-2.05285509891381	-14.51275133936684	2.947139020703808	-11.77512965031006	-710.8076818131675	-59.35802141882699	-13.64336776357206	0.3551396295837414	0.7153395856565209	-0.03130034258775102	-1.727946814165075	0.2503269733573952	-0.4379339770171513	1.827650880668951	-1.313309558488179	-1.313309558488186	-0.2350852120666936	0.004032596517087502	0.007819878236599236	0.276159885115642	-1.086703713023289e-07	-2.663848656421031e-07	4.716167392315491e-07	1.714253056681722e-08	-1.215214600840295e-07	5.494644991971375e-09	-1.055663628727284e-07
0.53	-0.1437432737390414	-0.07018960317935775	0.8081612371219484	0.9716859895694681	-0.3256904957174452	-0.1059169798782921	-0.8050432498812566	0.8364153401343316	0.8364153401342683	-0.1069872918879338	-0.1743327218800228	0.06477890924009996	-0.01143319379452742	-0.2397756164112913	-0.1975768766345243	-0.3610579582424551	1.534815921752368	-0.03377801959271898	0.4580176647848993	-0.7868535057440544	1.419763841108058	1.419763841108054	0.1193083204464835	0.001572739490687551	0.2144935308932957	0.02984191805062291	-0.3112915047061119	0.03892771983125527	-0.003821703402270517	-0.2179954656366678	0.1360546749520812	0.03232662861471285	0.3537402768310611	-2.18930465138075	-14.54494158694786	2.879798032034256	-11.73084000755057	-714.9534254657386	-59.12934701480297	-13.10137529872145	0.3730480243011411	0.7179490990904064	0.01786060016459391	-1.862709139153784	0.2300660449098701	-0.4550134818589496	1.874038710906437	-1.451652916276024	-1.451652916277482	-0.2876494643678912	-0.0004730689427123798	-0.03113100089120503	0.2427003910256166	-1.2859721154428e-07	-1.473192719853197e-07	6.495169723057974e-07	5.145919099052041e-08	-1.330537717826617e-07	2.227439580321406e-08	-1.121131627633435e-07
0.54	-0.1461220736804453	-0.07212944131953214	0.804552393457485	0.9869389052566585	-0.3260165580290727	-0.1013604825220153	-0.8128173126599497	0.8505382370472173	0.8505382370471545	-0.1058079787226578	-0.1743169576164436	0.06692188626634359	-0.01112250910342358	-0.2359541408697199	-0.1903870018078772	-0.360627432243646	1.515549655770301	-0.03144004856521032	0.4532220273126186	-0.7678818763092552	1.404592121610409	1.404592121610396	0.116541222274422	0.001578282954920538	0.2140493545904179	0.03227407330515746	-0.3179489582083888	0.0392633157030772	-0.004019626652407736	-0.220437552593318	0.1363867717732805	0.03260185193541377	0.3599819253504369	-2.329596390218263	-14.57737421210569	2.813541404933235	-11.71743676023209	-719.18273878762	-58.93925370330404	-12.55777334473473	0.3913052170116589	0.7199193169917258	0.06848921093166239	-1.989158575882086	0.243072769418834	-0.5105182177771304	1.920259303034003	-1.581229925091711	-1.581229925091732	-0.2508814607200187	0.002893861027567937	-0.05522873561757213	0.2506286124702848	-1.230272044475606e-07	-1.097635458869268e-07	6.495959898976436e-07	5.424029896292769e-08	-1.219323507542857e-07	3.441182265227632e-08	-1.067347899090676e-07
0.55	-0.1484618011230776	-0.0739973286524537	0.800950348790016	1.001992804707173	-0.3263193957706632	-0.09685381195578059	-0.8203994700814895	0.8645028710236982	0.8645028710236756	-0.1046565584153723	-0.1743012075540684	0.06905889848795864	-0.01078809749372514	-0.2319629254455097	-0.1831924671045536	-0.3596975306922688	1.495021619579969	-0.02913648458888022	0.4480317160834556	-0.7484879887362473	1.388121127557923	1.388121127557917	0.1137452649076019	0.001552619065805056	0.2133027393392609	0.03458451851956997	-0.3243388461337315	0.03946324696403859	-0.004198494470902333	-0.2228904082248363	0.1366112226552753	0.03281260120567049	0.3659354693479691	-2.498820413495811	-14.57595750745674	2.740994103745371	-11.60661592186424	-723.2419764213295	-58.72143084520579	-12.0135766305759	0.4072797215093737	0.7189313489879218	0.1178130376177632	-2.115934883581684	0.2225741769465169	-0.5354384635501356	1.958196373792503	-1.712045304092318	-1.712045304091523	-0.2935882903478429	-0.008032131874694495	-0.09193018463316005	0.2176313431227237	-1.159710702964357e-07	-7.51603967800834e-08	6.389559327705027e-07	5.548229569454057e-08	-1.101007720379669e-07	4.451136829553038e-08	-1.002818829797664e-07
0.5600000000000001	-0.1507607664081886	-0.07579332847794622	0.7973601176201369	1.016835162047192	-0.3265994826794406	-0.0924014746794424	-0.8277858400494268	0.8782963928278982	0.878296392827923	-0.1035330247649191	-0.1742862612541692	0.07118693410410987	-0.01043130565844325	-0.2278017093659405	-0.1760095003220646	-0.3582647327257591	1.473241233670699	-0.02688988200431869	0.4423553693317354	-0.7287243855888726	1.370369687154826	1.370369687154825	0.1109638909134009	0.001417530456947729	0.2122540334973683	0.03675011842182394	-0.330728734059059	0.0396631782250461	-0.004377362289518069	-0.2253432638563357	0.1368356735372925	0.03302335047598489	0.3718890133455014	-2.672623994819446	-14.57473798798815	2.669619852553451	-11.52402782573408	-727.3941242303449	-58.54178226332285	-11.46991762737346	0.4253053480835535	0.7176057328247321	0.1690684939581203	-2.239628519669675	0.2316804910650678	-0.6077253222886897	1.994202417907448	-1.837319195214007	-1.837319195214011	-0.2479647861962	-0.01899108292092828	-0.1156468537648238	0.2216595500384967	-1.071315836800243e-07	-4.41003400630991e-08	6.154529859805775e-07	5.48773589372002e-08	-9.741700409611675e-08	5.216545649181464e-08	-9.253953516043478e-08
0.5700000000000001	-0.1530173020663489	-0.07751759829087033	0.7937867190649803	1.03145361886535	-0.3268573583514917	-0.08800794220534411	-0.8349728111026994	0.8919061749275136	0.8919061749275484	-0.1024373389093215	-0.1742729157748164	0.0733030675303466	-0.01005352680300039	-0.2234772314457105	-0.1688502004576822	-0.3563312626382284	1.450249110418855	-0.02469881031784466	0.4363041968253875	-0.7086201090977554	1.351385649399595	1.351385649399595	0.108152498301161	0.001252192855045328	0.2109282182693878	0.03877825529535277	-0.336857635371151	0.03975377671852803	-0.004525896661993458	-0.2277849161069091	0.1369944831631039	0.03315491046730931	0.3775691915620763	-2.859439960855924	-14.5360649458597	2.591379372298898	-11.38017074083324	-731.3476523870662	-58.31817048161539	-10.92794626814983	0.4402357016156438	0.7142422907593102	0.2180255676987233	-2.359171803629588	0.210708344558287	-0.6109323026160929	2.025997659898316	-1.959090938880345	-1.959090938880367	-0.3008345267562688	-0.01509046311256631	-0.1477109715298444	0.1892149668043394	-9.835959931576982e-08	-1.764503062498421e-08	5.895631338326727e-07	5.376920293665224e-08	-8.528584269963664e-08	5.890259205853199e-08	-8.5092752499046e-08
0.58	-0.1552297496077805	-0.07917044506964897	0.7902351630710092	1.045836120935851	-0.3270937457392475	-0.08367634527386403	-0.8419572479120232	0.905320087674938	0.905320087674983	-0.1013703885854814	-0.1742611807443202	0.07540461038146166	-0.009656301736663254	-0.2189840860205528	-0.1617248934929683	-0.3538962204887164	1.426050284139481	-0.02259222514660272	0.4299682608067233	-0.6882175367992285	1.331195816716257	1.331195816716258	0.1052167845681973	0.001095440681638663	0.2093359184728009	0.04063936060065416	-0.342986536683238	0.03984437521204601	-0.004674431034643274	-0.2302265683574644	0.137153292788936	0.03328647045868258	0.383249369778645	-3.051623690637462	-14.49749937133816	2.514352762573691	-11.26116490433483	-735.4037003830354	-58.13097076153115	-10.38908622633297	0.4590388490691809	0.71080715289092	0.2693829063543355	-2.480969125175684	0.2147831880186033	-0.6646780247520594	2.053861579389453	-2.078478180835425	-2.078478180835422	-0.2728290103409504	-0.0172739972218897	-0.1689437674862291	0.1882532363929251	-8.967552486130112e-08	2.813398635998409e-09	5.605647537767018e-07	5.200569164262467e-08	-7.387435494363851e-08	6.444555675883659e-08	-7.803089190381541e-08
